<?xml version="1.0" encoding="UTF-8" standalone="no"?>
<svg
   version="1.1"
   width="171.72987"
   height="21.532"
   id="svg6"
   sodipodi:docname="315949ff623122869508aabcd20d62f0.svg"
   xmlns:inkscape="http://www.inkscape.org/namespaces/inkscape"
   xmlns:sodipodi="http://sodipodi.sourceforge.net/DTD/sodipodi-0.dtd"
   xmlns="http://www.w3.org/2000/svg"
   xmlns:svg="http://www.w3.org/2000/svg">
  <defs
     id="defs10" />
  <sodipodi:namedview
     id="namedview8"
     pagecolor="#ffffff"
     bordercolor="#666666"
     borderopacity="1.0"
     inkscape:pageshadow="2"
     inkscape:pageopacity="0.0"
     inkscape:pagecheckerboard="0" />
  <path
     fill="#09451f"
     d="m 11.396,17.08 q -0.672,1.036 -0.672,1.344 0,0.308 0.252,0.448 0,0.028 -0.504,0.42 -0.448,0.224 -1.008,0.224 -0.56,0 -0.812,-0.126 -0.252,-0.126 -0.168,-0.406 0.392,-1.26 2.94,-5.054 2.548,-3.794 3.416,-5.362 1.876,-3.388 1.876,-5.404 0,-0.84 -0.28,-1.428 Q 15.876,0.588 13.776,0.588 10.5,0.588 7,3.416 4.2,5.684 2.716,8.218 1.232,10.752 1.232,12.74 q 0,2.856 2.52,2.912 h 0.224 q 3.22,0 4.984,-2.324 0.672,-0.924 0.672,-1.568 0,-0.644 -0.28,-0.812 -0.028,-0.028 -0.028,-0.112 0,-0.084 0.168,-0.084 0.728,0 0.728,0.952 0,0.588 -0.574,1.596 -0.574,1.008 -2.03,1.904 Q 6.16,16.1 4.228,16.1 2.296,16.1 1.148,14.896 0,13.692 0,11.732 0,7.308 5.768,2.688 7.252,1.512 9.674,0.756 12.096,0 14.308,0 q 2.212,0 3.01,0.77 0.798,0.77 0.798,2.058 0,1.96 -1.596,5.292 -0.504,1.036 -2.268,3.78 l 2.156,-2.744 q 1.568,-2.044 5.432,-5.824 0.84,-0.812 1.862,-1.358 1.022,-0.546 1.75,-0.546 1.008,0 1.008,1.064 0,0.924 -0.882,2.786 -0.882,1.862 -1.778,3.528 -0.896,1.666 -1.092,2.184 -0.196,0.518 -0.28,0.826 -0.084,0.308 -0.112,0.336 0.084,-0.14 1.848,-2.142 1.764,-2.002 5.208,-4.998 l 4.48,-3.696 q 0.532,-0.448 0.952,-0.448 0.42,0 0.686,0.7 0.266,0.7 0.266,1.134 0,0.434 -1.344,1.806 -3.5,3.584 -5.936,7.84 -2.436,4.256 -2.436,6.076 0,0.476 0.168,0.658 0.168,0.182 0.532,0.112 0.364,-0.07 1.526,-0.574 1.162,-0.504 1.526,-0.588 0.14,0.056 0.14,0.14 0,0.42 -1.47,1.176 -1.47,0.756 -2.212,0.756 -0.742,0 -0.91,-0.252 -0.504,-0.728 -0.504,-1.764 0,-2.408 2.576,-6.916 1.652,-2.828 5.096,-7.616 -2.688,2.184 -7.28,6.692 -4.592,4.508 -6.02,7.056 -0.728,1.316 -1.764,1.316 -0.476,0 -0.476,-0.336 0,-0.112 0.574,-1.008 0.574,-0.896 2.534,-4.2 4.816,-8.372 4.816,-10.08 0,-0.448 -0.308,-0.448 -0.448,0 -1.316,0.756 -3.108,2.604 -6.608,6.804 -3.5,4.2 -5.264,6.972 z m 26.91276,1.288 q -2.1,0 -2.1,-2.324 0,-1.176 0.616,-2.576 0.616,-1.4 1.344,-2.352 -0.14,0.028 -0.364,0.028 -0.672,0 -1.12,-0.952 l -2.072,2.688 q -1.736,2.156 -2.016,2.156 -0.14,0 -0.14,-0.112 0,-0.28 0.476,-0.812 2.436,-2.828 3.444,-4.788 0.644,-2.436 1.624,-2.436 0.644,0 0.644,0.56 0,0.56 -0.7,1.428 l -0.672,0.896 q 0,0.588 0.868,0.588 0.504,0 1.12,-0.364 l 0.728,-0.448 q 0.056,-0.028 0.28,-0.028 0.224,0 0.476,0.28 0.252,0.28 0.168,0.504 l -1.932,2.436 q -1.792,2.296 -1.792,3.626 0,1.33 1.232,1.33 1.288,0 3.164,-1.372 1.12,-0.812 2.044,-1.82 0.868,-1.008 0.952,-1.008 0.196,0 0.196,0.21 0,0.21 -0.252,0.49 l -0.896,1.008 q -0.756,0.784 -1.68,1.512 -2.212,1.652 -3.64,1.652 z M 51.73952,7.07 q 0.378,0.266 0.378,0.63 0,0.364 -0.35,0.63 -0.35,0.266 -0.77,0.266 -0.42,0 -0.77,-0.308 -0.35,-0.308 -0.35,-0.7 0,-0.784 1.064,-0.784 0.42,0 0.798,0.266 z m -5.866,11.466 q -1.428,0 -1.428,-1.848 0,-1.512 1.652,-4.186 1.652,-2.674 2.66,-2.702 0.28,0 0.63,0.224 0.35,0.224 0.35,0.448 -0.14,0.196 -0.336,0.434 -0.196,0.238 -0.42,0.518 -0.224,0.28 -0.616,0.798 -0.392,0.518 -0.756,0.994 -2.1,2.716 -2.1,3.738 0,1.022 0.7,1.022 0.588,0 1.596,-0.644 2.352,-1.456 3.724,-3.192 0.504,-0.644 0.686,-0.644 0.182,0 0.182,0.224 0,0.224 -0.644,0.896 -0.644,0.672 -1.022,1.064 -0.378,0.392 -0.518,0.518 -0.14,0.126 -0.518,0.476 -0.378,0.35 -0.574,0.49 -0.196,0.14 -0.56,0.42 -0.364,0.28 -0.644,0.406 -0.28,0.126 -0.644,0.294 -0.588,0.252 -1.4,0.252 z m 8.43276,-1.456 q -1.12,0.784 -1.596,0.784 -0.644,0 -0.644,-0.7 0,-0.252 0.168,-0.616 0.168,-0.364 0.336,-0.364 0.252,0 0.112,0.42 -0.084,0.42 0.252,0.42 0.336,0 0.812,-0.336 l -1.064,-0.812 q -0.056,-0.056 -0.056,-0.196 0,-0.14 0.28,-0.406 0.28,-0.266 0.434,-0.266 0.154,0 1.358,0.952 3.472,-3.92 5.096,-5.152 -2.212,-0.672 -3.276,-0.672 -0.308,0 -0.588,0.042 -0.28,0.042 -0.602,0.336 -0.322,0.294 -0.322,0.658 0,0.364 0.308,0.602 0.308,0.238 0.308,0.378 0,0.14 -0.21,0.14 -0.21,0 -0.686,-0.56 -0.448,-0.56 -0.448,-1.148 0,-0.98 1.428,-1.288 0.756,-0.14 1.54,-0.14 0.784,0 3.864,1.008 0.392,-0.224 0.84,-0.224 1.176,0 1.176,0.7 0,0.28 -0.364,0.518 -0.364,0.238 -0.868,0.238 -0.504,0 -0.924,-0.196 -2.66,1.652 -5.712,5.208 l 1.008,0.784 q 1.204,0.784 2.8,0.784 1.596,0 2.352,-0.504 0.756,-0.504 0.756,-1.288 0,-0.364 -0.14,-0.686 -0.14,-0.322 0.252,-0.322 0.14,0 0.28,0.322 0.14,0.322 0.14,0.77 0,1.12 -1.064,1.848 -1.064,0.728 -2.744,0.728 -1.848,0 -3.052,-0.7 -0.476,-0.252 -1.54,-1.064 z M 71.34904,7.07 q 0.378,0.266 0.378,0.63 0,0.364 -0.35,0.63 -0.35,0.266 -0.77,0.266 -0.42,0 -0.77,-0.308 -0.35,-0.308 -0.35,-0.7 0,-0.784 1.064,-0.784 0.42,0 0.798,0.266 z m -5.866,11.466 q -1.428,0 -1.428,-1.848 0,-1.512 1.652,-4.186 1.652,-2.674 2.66,-2.702 0.28,0 0.63,0.224 0.35,0.224 0.35,0.448 -0.14,0.196 -0.336,0.434 -0.196,0.238 -0.42,0.518 -0.224,0.28 -0.616,0.798 -0.392,0.518 -0.756,0.994 -2.1,2.716 -2.1,3.738 0,1.022 0.7,1.022 0.588,0 1.596,-0.644 2.352,-1.456 3.724,-3.192 0.504,-0.644 0.686,-0.644 0.182,0 0.182,0.224 0,0.224 -0.644,0.896 -0.644,0.672 -1.022,1.064 -0.378,0.392 -0.518,0.518 -0.14,0.126 -0.518,0.476 -0.378,0.35 -0.574,0.49 -0.196,0.14 -0.56,0.42 -0.364,0.28 -0.644,0.406 -0.28,0.126 -0.644,0.294 -0.588,0.252 -1.4,0.252 z M 85.69456,7.07 q 0.378,0.266 0.378,0.63 0,0.364 -0.35,0.63 -0.35,0.266 -0.77,0.266 -0.42,0 -0.77,-0.308 -0.35,-0.308 -0.35,-0.7 0,-0.784 1.064,-0.784 0.42,0 0.798,0.266 z m -5.866,11.466 q -1.428,0 -1.428,-1.848 0,-1.512 1.652,-4.186 1.652,-2.674 2.66,-2.702 0.28,0 0.63,0.224 0.35,0.224 0.35,0.448 -0.14,0.196 -0.336,0.434 -0.196,0.238 -0.42,0.518 -0.224,0.28 -0.616,0.798 -0.392,0.518 -0.756,0.994 -2.1,2.716 -2.1,3.738 0,1.022 0.7,1.022 0.588,0 1.596,-0.644 2.352,-1.456 3.724,-3.192 0.504,-0.644 0.686,-0.644 0.182,0 0.182,0.224 0,0.224 -0.644,0.896 -0.644,0.672 -1.022,1.064 -0.378,0.392 -0.518,0.518 -0.14,0.126 -0.518,0.476 -0.378,0.35 -0.574,0.49 -0.196,0.14 -0.56,0.42 -0.364,0.28 -0.644,0.406 -0.28,0.126 -0.644,0.294 -0.588,0.252 -1.4,0.252 z M 118.59008,3.304 q -0.14,0 -2.996,-0.448 -4.732,2.688 -10.85,6.888 -6.118,4.2 -9.898,7.756 4.284,-0.476 8.708,-0.868 0.504,-0.028 1.456,-0.028 3.5,0 5.516,0.672 2.016,0.672 2.016,1.792 0,0.672 -0.812,1.484 -1.064,0.98 -1.456,0.98 -0.14,0 -0.14,-0.238 0,-0.238 0.322,-0.532 0.322,-0.294 0.322,-0.546 0,-0.868 -2.604,-1.596 -2.716,-0.784 -5.096,-0.784 -2.38,0 -5.53,0.462 -3.15,0.462 -4.97,0.462 h -0.196 q -0.448,0.392 -0.56,0.392 -0.056,0 -0.056,-0.098 0,-0.098 0.168,-0.378 -1.036,-0.056 -1.036,-0.588 0,-0.42 0.448,-0.868 0.448,-0.448 0.784,-0.448 0.056,0 0.112,0.056 0.14,0.224 1.204,0.392 7.084,-7.392 20.3,-14.644 l -0.84,-0.168 q -1.988,-0.448 -5.124,-0.448 -3.136,0 -5.46,0.84 -0.504,0.112 -1.512,0.616 -1.624,0.812 -1.624,1.932 0,0.168 0.07,0.406 0.07,0.238 -0.014,0.378 -0.112,0.168 -0.378,0.168 -0.266,0 -0.504,-0.392 -0.238,-0.392 -0.238,-0.84 0,-0.448 0.14,-0.924 0.532,-1.792 3.444,-2.632 1.484,-0.42 4.97,-0.42 3.486,0 6.902,0.616 0.42,0.028 1.4,0.252 l 1.54,-0.84 q 0.224,-0.112 0.98,-0.112 0.756,0 0.756,0.28 0,0.112 -0.252,0.196 -0.112,0.084 -1.428,0.812 1.26,0.084 1.554,0.084 0.294,0 0.532,-0.14 0.238,-0.14 0.168,-0.42 -0.07,-0.28 0.042,-0.28 0.168,0 0.406,0.378 0.238,0.378 0.238,0.686 0,0.7 -0.924,0.7 z m 5.80076,6.552 0.392,-0.084 q 0.308,0 0.588,0.252 0.28,0.252 0.28,0.392 0,0.14 -1.736,2.702 -1.736,2.562 -1.736,3.57 0,0.084 0.028,0.168 0.14,0.644 0.616,0.644 1.456,0 5.32,-4.816 0.084,-0.112 0.196,-0.112 0.112,0 0.112,0.21 0,0.21 -0.252,0.546 -3.584,4.788 -5.46,4.788 -0.252,0 -0.476,-0.084 -1.232,-0.476 -1.232,-1.848 0,-0.476 0.112,-0.952 l -1.736,1.68 q -1.652,1.456 -2.394,1.456 -0.742,0 -1.414,-0.476 -0.756,-0.56 -0.756,-1.484 0,-2.044 2.856,-4.886 2.856,-2.842 5.236,-2.842 0.924,0 1.232,0.644 0.084,0.224 0.14,0.378 0.056,0.154 0.084,0.154 z m -8.372,6.888 q 0,1.008 0.7,1.008 1.624,0 4.424,-3.556 l 2.968,-4.088 q -0.224,-0.392 -0.728,-0.392 -1.708,0 -4.536,2.646 -2.828,2.646 -2.828,4.382 z M 132.3756,9.38 q 0.756,0 0.756,0.588 0,0.168 -0.084,0.336 -2.52,3.5 -3.024,5.292 6.524,-6.524 7.924,-6.524 0.14,-0.028 0.252,-0.028 0.784,0 0.784,0.7 0,0.14 -0.056,0.28 -0.056,0.14 -1.12,1.512 -1.232,1.456 -2.086,2.8 -0.854,1.344 -0.854,2.24 0,0.896 0.392,0.896 1.232,0 4.284,-3.388 0.056,-0.056 0.196,-0.252 0.42,-0.504 0.504,-0.504 0.084,0 0.084,0.28 0,0.28 -0.392,0.728 -3.472,3.948 -4.928,3.948 -1.372,0 -1.372,-1.512 0,-1.512 1.12,-3.472 l 1.792,-2.912 q -1.904,1.4 -3.388,3.066 -1.484,1.666 -2.702,3.234 -1.218,1.568 -1.414,1.568 -0.42,0 -0.658,-0.35 -0.238,-0.35 -0.238,-0.868 0,-0.518 0.364,-1.386 0.364,-0.868 0.924,-2.1 l -1.68,1.764 q -0.616,0.616 -0.77,0.616 -0.154,0 -0.154,-0.182 0,-0.182 0.224,-0.406 1.036,-1.036 1.792,-1.988 0.728,-0.952 2.996,-3.64 0.252,-0.336 0.532,-0.336 z m 17.30876,0.476 0.392,-0.084 q 0.308,0 0.588,0.252 0.28,0.252 0.28,0.392 0,0.14 -1.736,2.702 -1.736,2.562 -1.736,3.57 0,0.084 0.028,0.168 0.14,0.644 0.616,0.644 1.456,0 5.32,-4.816 0.084,-0.112 0.196,-0.112 0.112,0 0.112,0.21 0,0.21 -0.252,0.546 -3.584,4.788 -5.46,4.788 -0.252,0 -0.476,-0.084 -1.232,-0.476 -1.232,-1.848 0,-0.476 0.112,-0.952 l -1.736,1.68 q -1.652,1.456 -2.394,1.456 -0.742,0 -1.414,-0.476 -0.756,-0.56 -0.756,-1.484 0,-2.044 2.856,-4.886 2.856,-2.842 5.236,-2.842 0.924,0 1.232,0.644 0.084,0.224 0.14,0.378 0.056,0.154 0.084,0.154 z m -8.372,6.888 q 0,1.008 0.7,1.008 1.624,0 4.424,-3.556 l 2.968,-4.088 q -0.224,-0.392 -0.728,-0.392 -1.708,0 -4.536,2.646 -2.828,2.646 -2.828,4.382 z m 19.43676,-9.52 q 0.84,0 1.428,0.56 0.588,0.56 0.588,1.568 0,2.212 -3.668,5.544 -3.108,2.8 -5.012,3.416 -0.308,0 -0.812,-0.336 -0.504,-0.336 -0.504,-0.616 0,-0.616 1.344,-4.172 1.344,-3.556 1.848,-3.976 0.112,-0.112 0.364,-0.112 0.252,0 0.532,0.266 0.28,0.266 0.308,0.63 0,0.028 -1.386,3.248 -1.386,3.22 -1.302,3.836 1.204,-0.364 4.298,-2.94 3.094,-2.576 3.094,-4.62 0,-1.232 -1.232,-1.792 -0.196,-0.084 -0.196,-0.252 0,-0.252 0.308,-0.252 z m 3.50476,11.368 q -0.308,0 -0.56,-0.084 -1.792,-0.504 -1.792,-2.016 0,-1.96 2.464,-4.536 2.464,-2.576 4.424,-2.576 0.644,0 1.05,0.35 0.406,0.35 0.406,0.854 0,1.568 -2.366,2.996 -2.366,1.428 -3.85,1.428 -0.224,0 -0.392,-0.056 -0.42,0.756 -0.42,1.596 0,1.456 1.386,1.456 1.386,0 3.598,-1.876 1.708,-1.372 2.912,-2.912 0.252,-0.336 0.434,-0.336 0.182,0 0.182,0.168 0,0.168 -0.224,0.476 -1.512,1.988 -3.64,3.528 -2.128,1.54 -3.612,1.54 z m 5.292,-8.064 q 0,-0.336 -0.714,-0.336 -0.714,0 -2.03,1.092 -1.764,1.456 -2.744,3.052 0.168,0.056 0.364,0.056 1.064,0 2.842,-1.134 1.778,-1.134 2.226,-2.478 0.056,-0.14 0.056,-0.252 z"
     id="path2" />
  <path
     fill="#"
     d=""
     id="path4" />
</svg>
